<svg width="24.000000" height="24.000000" viewBox="0 0 24 24" fill="none" xmlns="http://www.w3.org/2000/svg" xmlns:xlink="http://www.w3.org/1999/xlink">
	<desc>
			Created with Pixso.
	</desc>
	<defs/>
	<rect id="vuesax/linear/facebook" width="24.000000" height="24.000000" transform="translate(-0.930664 0.000000)" fill="#FFFFFF" fill-opacity="0"/>
	<g opacity="0.580000"/>
	<path id="Vector" d="M13.06 12.2L15.66 12.2C15.86 12.2 15.96 12.4 15.96 12.59L15.56 14.5C15.56 14.59 15.36 14.7 15.26 14.7L13.06 14.7L13.06 22L10.06 22L10.06 14.79L8.36 14.79C8.16 14.79 8.06 14.7 8.06 14.5L8.06 12.59C8.06 12.4 8.16 12.29 8.36 12.29L10.06 12.29L10.06 9C10.06 7.29 11.36 6 13.06 6L15.76 6C15.96 6 16.06 6.09 16.06 6.29L16.06 8.7C16.06 8.9 15.96 9 15.76 9L13.36 9C13.16 9 13.06 9.09 13.06 9.29L13.06 12.2Z" stroke="#B1B1B1" stroke-opacity="1.000000" stroke-width="1.500000"/>
	<path id="Vector" d="M8.06 22C3.06 22 1.06 20 1.06 15L1.06 9C1.06 4 3.06 2 8.06 2L14.06 2C19.06 2 21.06 4 21.06 9L21.06 15C21.06 20 19.06 22 14.06 22L8.06 22Z" stroke="#B1B1B1" stroke-opacity="1.000000" stroke-width="1.500000" stroke-linejoin="round"/>
	<g opacity="0.000000"/>
</svg>
