<svg width="25" height="24" viewBox="0 0 25 24" fill="none" xmlns="http://www.w3.org/2000/svg">
<path d="M14.0693 9.3V12.2H16.6693C16.8693 12.2 16.9693 12.4 16.9693 12.6L16.5693 14.5C16.5693 14.6 16.3693 14.7 16.2693 14.7H14.0693V22H11.0693V14.8H9.36934C9.16934 14.8 9.06934 14.7 9.06934 14.5V12.6C9.06934 12.4 9.16934 12.3 9.36934 12.3H11.0693V9C11.0693 7.3 12.3693 6 14.0693 6H16.7693C16.9693 6 17.0693 6.1 17.0693 6.3V8.7C17.0693 8.9 16.9693 9 16.7693 9H14.3693C14.1693 9 14.0693 9.1 14.0693 9.3Z" stroke="#714095" stroke-width="1.5" stroke-miterlimit="10" stroke-linecap="round"/>
<path d="M15.0693 22H9.06934C4.06934 22 2.06934 20 2.06934 15V9C2.06934 4 4.06934 2 9.06934 2H15.0693C20.0693 2 22.0693 4 22.0693 9V15C22.0693 20 20.0693 22 15.0693 22Z" stroke="#714095" stroke-width="1.5" stroke-linecap="round" stroke-linejoin="round"/>
</svg>
