<svg width="627.000000" height="143.000000" viewBox="0 0 627 143" fill="none" xmlns="http://www.w3.org/2000/svg" xmlns:xlink="http://www.w3.org/1999/xlink">
	<desc>
			Created with Pixso.
	</desc>
	<defs/>
	<path id="Vector 3" d="M83 134C59.5 134 48.44 125.93 26 126.5C15.8 126.75 0 129 0 129" stroke="#FFDFC9" stroke-opacity="1.000000" stroke-width="2.000000"/>
	<path id="Vector 4" d="M81 134C114.5 134.5 135.57 129.62 170 129.5C225.05 129.3 255.58 144.87 310.5 141C361.5 137.4 396.99 143.35 438.5 113.5C451.73 103.98 469 85 469 85" stroke="#FFDFC9" stroke-opacity="1.000000" stroke-width="2.000000"/>
	<path id="Vector 5" d="M473.43 76.95L481.76 66.43C484.06 63.52 487.58 58.88 490.32 61.38C493.05 63.88 488.74 67.79 486.01 70.29L476.12 79.38C475.77 79.7 475.69 80.22 475.93 80.62L477.95 84.08C478.09 84.31 478.02 84.6 477.8 84.75L476.5 85.61C476.26 85.77 475.94 85.69 475.79 85.44L473.63 81.67C473.48 81.42 473.15 81.36 472.93 81.54C472.22 82.1 471.29 81.2 471.83 80.47C471.98 80.27 471.91 79.98 471.68 79.89L467.02 77.94C466.73 77.81 466.62 77.46 466.8 77.19L467.87 75.63C468 75.43 468.27 75.36 468.49 75.46L472.22 77.23C472.64 77.43 473.14 77.31 473.43 76.95Z" fill="#FFDFC9" fill-opacity="1.000000" fill-rule="evenodd"/>
	<path id="Vector 6" d="M485.97 69.84L480.37 75.36L486.6 83.3C487.05 83.88 487.83 84.09 488.51 83.83C489.33 83.52 489.76 82.63 489.52 81.8L485.97 69.84Z" fill="#FFDFC9" fill-opacity="1.000000" fill-rule="evenodd"/>
	<path id="Vector 7" d="M482.56 66.72L477.55 72.51L469.39 67.3C468.77 66.91 468.49 66.15 468.69 65.45C468.93 64.61 469.77 64.1 470.62 64.27L482.56 66.72Z" fill="#FFDFC9" fill-opacity="1.000000" fill-rule="evenodd"/>
	<path id="Subtract" d="M621.02 0C619.01 0.86 616.56 1.9 613.89 3.01C606.74 5.99 598.02 9.47 591.68 11.54C580.82 15.1 571.07 15.45 561.58 15.79C559.79 15.85 558.01 15.92 556.24 16C545.06 16.54 534.12 17.91 522.44 25.66C515.29 30.4 507.84 38.37 502.21 45.1C499.39 48.47 497.01 51.55 495.33 53.78C494.49 54.9 493.83 55.81 493.38 56.44C493.15 56.75 492.97 57 492.86 57.17C492.8 57.25 492.75 57.31 492.72 57.36L492.69 57.41L492.68 57.42C492.68 57.42 492.67 57.42 493.5 58L494.32 58.57L494.32 58.56L494.33 58.55L494.36 58.51C494.39 58.46 494.43 58.4 494.49 58.32C494.6 58.16 494.77 57.92 495 57.61C495.45 56.99 496.1 56.09 496.93 54.98C498.59 52.77 500.95 49.72 503.75 46.38C509.35 39.68 516.65 31.9 523.55 27.33C534.78 19.88 545.28 18.53 556.34 18C558.07 17.92 559.82 17.85 561.59 17.79C571.09 17.45 581.15 17.09 592.31 13.45C598.72 11.35 607.5 7.83 614.66 4.85C618.25 3.36 621.43 2 623.72 1.01C624.66 0.6 625.46 0.26 626.06 0L621.02 0Z" fill="#FFDFC9" fill-opacity="1.000000" fill-rule="nonzero"/>
</svg>
