<?xml version="1.0" encoding="utf-8"?>
<!-- Generator: Adobe Illustrator 22.0.1, SVG Export Plug-In . SVG Version: 6.00 Build 0)  -->
<svg version="1.1" id="Слой_1" xmlns="http://www.w3.org/2000/svg" xmlns:xlink="http://www.w3.org/1999/xlink" x="0px" y="0px"
	 viewBox="0 0 24 24" style="enable-background:new 0 0 24 24;" xml:space="preserve">
<style type="text/css">
	.st0{fill:#FFFFFF;fill-opacity:0;}
	.st1{fill:none;stroke:#B1B1B1;stroke-width:1.5;stroke-linejoin:round;}
	.st2{fill:#B1B1B1;}
</style>
<rect id="vuesax_x2F_linear_x2F_facebook" class="st0" width="24" height="24"/>
<path id="Vector_1_" class="st1" d="M9,22c-5,0-7-2-7-7V9c0-5,2-7,7-7h6c5,0,7,2,7,7v6c0,5-2,7-7,7H9z"/>
<g>
	<path class="st2" d="M12.7,10c0.3-0.1,0.7-0.3,1-0.4c1-0.2,2,0,2.9,0.6c1,0.7,1.6,1.8,1.6,3c0,1.4,0,2.7,0,4.1
		c0,0.4-0.2,0.6-0.6,0.6c-0.6,0-1.3,0-1.9,0c-0.3,0-0.5-0.2-0.5-0.5c0-1.2,0-2.4,0-3.6c0-0.7-0.4-1.2-1.1-1.3
		c-0.7-0.1-1.4,0.5-1.4,1.1c0,1.2,0,2.5,0,3.7c0,0.1,0,0.1,0,0.2c-0.1,0.2-0.2,0.4-0.5,0.4c-0.7,0-1.3,0-2,0c-0.2,0-0.4-0.2-0.5-0.4
		c0-0.1,0-0.1,0-0.2c0-2.4,0-4.8,0-7.2c0-0.4,0.2-0.6,0.6-0.6c0.6,0,1.2,0,1.8,0C12.5,9.5,12.6,9.6,12.7,10z M11.7,16.9
		c0-0.1,0-0.1,0-0.2c0-1,0-2,0-3c0-0.2,0-0.3,0-0.5c0.2-0.9,0.7-1.5,1.5-1.7c0.8-0.3,1.6,0,2.2,0.5c0.5,0.4,0.7,1,0.7,1.6
		c0,1,0,2,0,3c0,0,0,0.1,0,0.1c0.3,0,0.7,0,1,0c0,0,0-0.1,0-0.1c0-1.2,0-2.4,0-3.6c0-1-0.4-1.7-1.2-2.2c-1-0.7-2.4-0.6-3.4,0.3
		c-0.2,0.2-0.4,0.2-0.6,0.1c-0.2-0.1-0.3-0.3-0.3-0.5c0-0.1,0-0.2,0-0.3c-0.3,0-0.7,0-1,0c0,2.1,0,4.3,0,6.4
		C11.1,16.9,11.4,16.9,11.7,16.9z"/>
	<path class="st2" d="M8.8,13.7c0,1.2,0,2.4,0,3.6c0,0.3-0.2,0.6-0.6,0.6c-0.6,0-1.2,0-1.9,0c-0.3,0-0.5-0.2-0.5-0.5
		c0-0.7,0-1.5,0-2.2c0-1.7,0-3.4,0-5c0-0.3,0.2-0.6,0.6-0.6c0.6,0,1.2,0,1.9,0c0.3,0,0.5,0.2,0.5,0.5C8.8,11.3,8.8,12.5,8.8,13.7z
		 M7.8,10.5c-0.3,0-0.7,0-1,0c0,2.1,0,4.3,0,6.4c0.3,0,0.6,0,1,0C7.8,14.8,7.8,12.7,7.8,10.5z"/>
	<path class="st2" d="M7.2,9C6.5,9,5.8,8.3,5.8,7.5C5.9,6.6,6.6,6,7.4,6.1c0.8,0.1,1.4,0.8,1.4,1.6C8.7,8.4,8,9.1,7.2,9z M7.8,7.6
		c0-0.3-0.2-0.5-0.5-0.5C7,7.1,6.8,7.3,6.8,7.5C6.8,7.8,7,8,7.3,8C7.6,8,7.8,7.8,7.8,7.6z"/>
</g>
</svg>
