<svg width="24.000000" height="24.000000" viewBox="0 0 24 24" fill="none" xmlns="http://www.w3.org/2000/svg" xmlns:xlink="http://www.w3.org/1999/xlink">
	<desc>
			Created with Pixso.
	</desc>
	<defs/>
	<rect id="vuesax/linear/call" width="24.000000" height="24.000000" transform="translate(-0.930664 0.000000)" fill="#FFFFFF" fill-opacity="0"/>
	<path id="Vector" d="M20.78 19.41C20.61 19.78 20.39 20.12 20.1 20.44C19.61 20.98 19.07 21.37 18.46 21.62C17.86 21.87 17.21 22 16.51 22C15.49 22 14.4 21.75 13.25 21.26C12.1 20.78 10.95 20.12 9.81 19.29C8.66 18.45 7.57 17.51 6.53 16.49C5.5 15.45 4.57 14.36 3.74 13.21C2.92 12.08 2.26 10.94 1.78 9.8C1.3 8.66 1.06 7.58 1.06 6.54C1.06 5.86 1.18 5.2 1.42 4.61C1.66 4 2.04 3.44 2.57 2.94C3.21 2.3 3.91 2 4.65 2C4.93 2 5.21 2.05 5.46 2.17C5.72 2.29 5.95 2.48 6.13 2.74L8.45 6C8.63 6.25 8.76 6.49 8.85 6.7C8.94 6.91 8.99 7.12 8.99 7.32C8.99 7.55 8.92 7.79 8.78 8.03C8.65 8.25 8.46 8.5 8.22 8.74L7.46 9.53C7.35 9.63 7.3 9.76 7.3 9.92C7.3 10 7.31 10.08 7.33 10.16C7.36 10.24 7.39 10.29 7.41 10.36C7.59 10.69 7.9 11.12 8.34 11.63C8.79 12.16 9.27 12.69 9.79 13.21C10.33 13.75 10.85 14.24 11.38 14.69C11.9 15.12 12.33 15.42 12.67 15.61C12.72 15.62 12.78 15.66 12.85 15.69C12.93 15.71 13.01 15.73 13.1 15.73C13.27 15.73 13.4 15.66 13.51 15.55L14.27 14.8C14.52 14.55 14.76 14.37 14.99 14.25C15.22 14.11 15.45 14.04 15.7 14.04C15.89 14.04 16.09 14.08 16.31 14.16C16.53 14.25 16.76 14.38 17.01 14.55L20.32 16.91C20.58 17.08 20.76 17.29 20.87 17.54C20.97 17.79 21.03 18.04 21.03 18.33C21.03 18.69 20.95 19.05 20.78 19.41Z" stroke="#B1B1B1" stroke-opacity="1.000000" stroke-width="1.500000"/>
	<g opacity="0.000000"/>
</svg>
