<svg width="25" height="24" viewBox="0 0 25 24" fill="none" xmlns="http://www.w3.org/2000/svg">
<path d="M22.0393 18.33C22.0393 18.69 21.9593 19.06 21.7893 19.42C21.6193 19.78 21.3993 20.12 21.1093 20.44C20.6193 20.98 20.0793 21.37 19.4693 21.62C18.8693 21.87 18.2193 22 17.5193 22C16.4993 22 15.4093 21.76 14.2593 21.27C13.1093 20.78 11.9593 20.12 10.8193 19.29C9.66934 18.45 8.57934 17.52 7.53934 16.49C6.50934 15.45 5.57934 14.36 4.74934 13.22C3.92934 12.08 3.26934 10.94 2.78934 9.81C2.30934 8.67 2.06934 7.58 2.06934 6.54C2.06934 5.86 2.18934 5.21 2.42934 4.61C2.66934 4 3.04934 3.44 3.57934 2.94C4.21934 2.31 4.91934 2 5.65934 2C5.93934 2 6.21934 2.06 6.46934 2.18C6.72934 2.3 6.95934 2.48 7.13934 2.74L9.45934 6.01C9.63934 6.26 9.76934 6.49 9.85934 6.71C9.94934 6.92 9.99934 7.13 9.99934 7.32C9.99934 7.56 9.92934 7.8 9.78934 8.03C9.65934 8.26 9.46934 8.5 9.22934 8.74L8.46934 9.53C8.35934 9.64 8.30934 9.77 8.30934 9.93C8.30934 10.01 8.31934 10.08 8.33934 10.16C8.36934 10.24 8.39934 10.3 8.41934 10.36C8.59934 10.69 8.90934 11.12 9.34934 11.64C9.79934 12.16 10.2793 12.69 10.7993 13.22C11.3393 13.75 11.8593 14.24 12.3893 14.69C12.9093 15.13 13.3393 15.43 13.6793 15.61C13.7293 15.63 13.7893 15.66 13.8593 15.69C13.9393 15.72 14.0193 15.73 14.1093 15.73C14.2793 15.73 14.4093 15.67 14.5193 15.56L15.2793 14.81C15.5293 14.56 15.7693 14.37 15.9993 14.25C16.2293 14.11 16.4593 14.04 16.7093 14.04C16.8993 14.04 17.0993 14.08 17.3193 14.17C17.5393 14.26 17.7693 14.39 18.0193 14.56L21.3293 16.91C21.5893 17.09 21.7693 17.3 21.8793 17.55C21.9793 17.8 22.0393 18.05 22.0393 18.33Z" stroke="#B1B1B1" stroke-width="1.5" stroke-miterlimit="10"/>
</svg>
