<svg width="44" height="44" viewBox="0 0 44 44" fill="none" xmlns="http://www.w3.org/2000/svg">
<path d="M23.7669 14.4295L15.4354 24.95C15.1465 25.3148 14.6442 25.4321 14.2236 25.2331L10.4963 23.4687C10.2738 23.3634 10.0078 23.4357 9.86916 23.6391L8.80721 25.198C8.62913 25.4594 8.73545 25.8183 9.02715 25.9406L13.6797 27.8907C13.9109 27.9876 13.9889 28.2765 13.8379 28.4766C13.2929 29.1989 14.2264 30.1054 14.9323 29.5393L15.0028 29.4828C15.1895 29.3331 15.4658 29.3853 15.585 29.5929L17.7965 33.445C17.9404 33.6955 18.2659 33.7724 18.5066 33.6126L19.8008 32.7538C20.0217 32.6072 20.0898 32.3136 19.9559 32.0847L17.9338 28.6287C17.6963 28.2226 17.7739 27.7058 18.1203 27.3874L28.0128 18.2954C30.7393 15.7895 35.0583 11.8841 32.3235 9.38741C29.5873 6.88937 26.0671 11.5249 23.7669 14.4295Z" fill="#FFDFC9"/>
<path d="M22.3715 23.3678L27.978 17.8405L31.5198 29.8002C31.7671 30.6353 31.3311 31.5203 30.5182 31.833C29.834 32.0962 29.0581 31.8824 28.6053 31.3058L22.3715 23.3678Z" fill="#FFDFC9"/>
<path d="M19.5569 20.5187L24.5655 14.7257L12.6233 12.279C11.7717 12.1045 10.9298 12.6163 10.6927 13.4526C10.4928 14.1575 10.7786 14.9101 11.3961 15.3046L19.5569 20.5187Z" fill="#FFDFC9"/>
</svg>
