<?xml version="1.0" encoding="utf-8"?>
<!-- Generator: Adobe Illustrator 22.0.1, SVG Export Plug-In . SVG Version: 6.00 Build 0)  -->
<svg version="1.1" id="Слой_1" xmlns="http://www.w3.org/2000/svg" xmlns:xlink="http://www.w3.org/1999/xlink" x="0px" y="0px"
	 viewBox="0 0 24 24" style="enable-background:new 0 0 24 24;" xml:space="preserve">
<style type="text/css">
	.st0{fill:#714095;}
	.st1{fill:#FFFFFF;fill-opacity:0;}
	.st2{fill:none;stroke:#714095;stroke-width:1.5;stroke-linejoin:round;}
</style>
<g>
	<path class="st0" d="M16.6,12.3c1.2,0.8,2.1,1.8,2.7,3.1c0.2,0.4,0.4,0.8,0.5,1.3c0.2,0.5,0,0.8-0.6,0.8c-0.8,0-1.6,0-2.5,0
		c-0.4,0-0.6-0.2-0.7-0.6c-0.4-1.1-1.1-2-2.3-2.5c-0.1,0-0.2-0.1-0.3-0.1c0,0-0.1,0-0.2,0c0,0.7,0,1.4,0,2.2c0,0.8-0.1,1-0.9,1
		c-4.3,0-7.3-2.5-8.2-6.8C4.1,9.8,4,8.9,4,8C3.9,7.4,4.1,7.2,4.7,7.2c0.7,0,1.5,0,2.2,0c0.5,0,0.6,0.2,0.7,0.7
		c0.2,1,0.3,2.1,0.5,3.1c0.3,1,0.8,1.8,1.8,2.4c0-0.2,0-0.4,0-0.5c0-1.6,0-3.2,0-4.8c0-0.6,0.2-0.8,0.8-0.8c0.6,0,1.3,0,1.9,0
		c0.6,0,0.8,0.2,0.8,0.8c0,0.9,0,1.7,0.1,2.7c0.3-0.3,0.8-0.5,1-0.8c0.5-0.6,0.9-1.3,1.2-2.1c0.2-0.4,0.4-0.6,0.8-0.6
		c0.7,0,1.3,0,2,0c0.6,0,0.8,0.3,0.7,0.9c-0.4,1.6-1.2,2.9-2.3,4C16.9,12.1,16.8,12.2,16.6,12.3z M18,8.4c-1.1-0.2-1.1-0.2-1.6,0.7
		c-0.7,1.3-1.6,2.3-3,2.8c-0.9,0.3-1.2,0.1-1.2-0.8c0-0.9,0-1.8,0-2.6c-0.5,0-0.9,0-1.3,0c0,0.2,0,0.4,0,0.5c0,1.7,0,3.4,0,5.1
		c0,0.7-0.3,0.9-0.9,0.7c-0.4-0.2-0.8-0.4-1.2-0.7C7.6,12.9,7,11.4,6.7,9.8C6.6,9.3,6.5,8.8,6.5,8.4c-0.5,0-0.9,0-1.4,0
		c-0.3,4.3,3.7,8.8,7.2,8c0-0.8,0-1.7,0-2.5c0-0.6,0.2-0.8,0.8-0.7c1.8,0.3,3,1.3,3.8,2.9c0.1,0.2,0.2,0.4,0.3,0.4
		c0.4,0,0.9,0,1.3,0C18,15,17,13.9,15.7,13.1c-1-0.6-1-0.8-0.1-1.5C16.8,10.8,17.6,9.7,18,8.4z"/>
</g>
<rect id="vuesax_x2F_linear_x2F_facebook" class="st1" width="24" height="24"/>
<path id="Vector_1_" class="st2" d="M9,22c-5,0-7-2-7-7V9c0-5,2-7,7-7h6c5,0,7,2,7,7v6c0,5-2,7-7,7H9z"/>
</svg>
