<svg width="24.000000" height="24.000000" viewBox="0 0 24 24" fill="none" xmlns="http://www.w3.org/2000/svg" xmlns:xlink="http://www.w3.org/1999/xlink">
	<desc>
			Created with Pixso.
	</desc>
	<defs/>
	<rect id="vuesax/linear/whatsapp" width="24.000000" height="24.000000" transform="translate(-0.930664 0.000000)" fill="#FFFFFF" fill-opacity="0"/>
	<g opacity="0.580000"/>
	<path id="Vector" d="M11.06 22C16.56 22 21.06 17.5 21.06 12C21.06 6.5 16.56 2 11.06 2C5.56 2 1.06 6.5 1.06 12C1.06 13.79 1.56 15.5 2.36 17L1.5 20.3C1.31 21.05 2 21.73 2.75 21.51L5.96 20.59C7.46 21.5 9.26 22 11.06 22Z" stroke="#714095" stroke-opacity="1.000000" stroke-width="1.500000" stroke-linejoin="round"/>
	<path id="Vector" d="M15.45 15.33C15.37 15.5 15.28 15.65 15.15 15.79C14.92 16.04 14.68 16.21 14.41 16.32C14.14 16.44 13.84 16.5 13.53 16.5C13.07 16.5 12.58 16.39 12.06 16.17C11.54 15.95 11.02 15.65 10.51 15.28C9.99 14.9 9.5 14.48 9.03 14.02C8.57 13.55 8.15 13.06 7.77 12.54C7.4 12.03 7.11 11.52 6.89 11.01C6.67 10.5 6.56 10.01 6.56 9.54C6.56 9.23 6.62 8.94 6.73 8.67C6.83 8.4 7.01 8.14 7.25 7.92C7.53 7.63 7.85 7.5 8.18 7.5C8.31 7.5 8.43 7.52 8.55 7.58C8.66 7.63 8.77 7.71 8.85 7.83L9.89 9.3C9.98 9.41 10.03 9.52 10.08 9.61C10.12 9.71 10.14 9.8 10.14 9.89C10.14 10 10.11 10.11 10.04 10.21C9.98 10.31 9.9 10.42 9.79 10.53L9.45 10.88C9.4 10.93 9.38 10.99 9.38 11.06C9.38 11.1 9.38 11.13 9.39 11.17C9.4 11.2 9.42 11.23 9.43 11.26C9.51 11.41 9.65 11.6 9.85 11.83C10.05 12.07 10.26 12.31 10.5 12.54C10.74 12.78 10.98 13 11.22 13.21C11.45 13.4 11.64 13.54 11.8 13.62C11.82 13.63 11.85 13.64 11.88 13.66C11.91 13.67 11.95 13.67 11.99 13.67C12.07 13.67 12.13 13.65 12.18 13.6L12.52 13.26C12.63 13.15 12.74 13.06 12.84 13.01C12.95 12.94 13.05 12.91 13.16 12.91C13.25 12.91 13.34 12.93 13.44 12.97C13.54 13.01 13.64 13.07 13.75 13.15L15.24 14.21C15.36 14.29 15.44 14.38 15.49 14.49C15.54 14.61 15.56 14.72 15.56 14.84C15.56 15.01 15.53 15.17 15.45 15.33Z" stroke="#714095" stroke-opacity="1.000000" stroke-width="1.500000"/>
	<g opacity="0.000000"/>
</svg>
