<svg width="25" height="24" viewBox="0 0 25 24" fill="none" xmlns="http://www.w3.org/2000/svg">
<path d="M6.96934 20.6C8.46934 21.5 10.2693 22 12.0693 22C17.5693 22 22.0693 17.5 22.0693 12C22.0693 6.5 17.5693 2 12.0693 2C6.56934 2 2.06934 6.5 2.06934 12C2.06934 13.8 2.56934 15.5 3.36934 17L2.50978 20.306C2.31506 21.0549 3.00826 21.7317 3.75232 21.5191L6.96934 20.6Z" stroke="#B1B1B1" stroke-width="1.5" stroke-miterlimit="10" stroke-linecap="round" stroke-linejoin="round"/>
<path d="M16.5693 14.8485C16.5693 15.0105 16.5333 15.177 16.4567 15.339C16.3801 15.501 16.2809 15.654 16.1502 15.798C15.9294 16.041 15.686 16.2165 15.4111 16.329C15.1407 16.4415 14.8478 16.5 14.5323 16.5C14.0726 16.5 13.5814 16.392 13.0631 16.1715C12.5448 15.951 12.0265 15.654 11.5128 15.2805C10.9945 14.9025 10.5032 14.484 10.0345 14.0205C9.57034 13.5525 9.15121 13.062 8.77715 12.549C8.40759 12.036 8.11015 11.523 7.89382 11.0145C7.6775 10.5015 7.56934 10.011 7.56934 9.543C7.56934 9.237 7.62342 8.9445 7.73158 8.6745C7.83974 8.4 8.011 8.148 8.24986 7.923C8.53829 7.6395 8.85376 7.5 9.18726 7.5C9.31345 7.5 9.43964 7.527 9.55231 7.581C9.66949 7.635 9.77314 7.716 9.85426 7.833L10.8998 9.3045C10.981 9.417 11.0395 9.5205 11.0801 9.6195C11.1207 9.714 11.1432 9.8085 11.1432 9.894C11.1432 10.002 11.1116 10.11 11.0486 10.2135C10.99 10.317 10.9043 10.425 10.7962 10.533L10.4537 10.8885C10.4041 10.938 10.3816 10.9965 10.3816 11.0685C10.3816 11.1045 10.3861 11.136 10.3951 11.172C10.4086 11.208 10.4221 11.235 10.4311 11.262C10.5123 11.4105 10.652 11.604 10.8503 11.838C11.0531 12.072 11.2694 12.3105 11.5037 12.549C11.7471 12.7875 11.9815 13.008 12.2203 13.2105C12.4547 13.4085 12.6485 13.5435 12.8017 13.6245C12.8242 13.6335 12.8513 13.647 12.8828 13.6605C12.9189 13.674 12.9549 13.6785 12.9955 13.6785C13.0721 13.6785 13.1307 13.6515 13.1803 13.602L13.5228 13.2645C13.6354 13.152 13.7436 13.0665 13.8473 13.0125C13.9509 12.9495 14.0546 12.918 14.1672 12.918C14.2529 12.918 14.343 12.936 14.4421 12.9765C14.5413 13.017 14.6449 13.0755 14.7576 13.152L16.2494 14.2095C16.3665 14.2905 16.4477 14.385 16.4972 14.4975C16.5423 14.61 16.5693 14.7225 16.5693 14.8485Z" stroke="#B1B1B1" stroke-width="1.5" stroke-miterlimit="10"/>
</svg>
